<svg height="512" viewBox="0 0 64 64" width="512" xmlns="http://www.w3.org/2000/svg"><path d="M63 10.5v47l-16-24-10.5 15.74L32 42.5l-10 15h-5v-47z" fill="#5d9cec"/><path d="M1 10.5h16v47H1z" fill="#e6e9ed"/><path d="M29.02 19.49c1.65 0 3 1.35 3 3 0 1.66-1.35 3-3 3-1.659 0-3-1.34-3-3 0-1.65 1.34-3 3-3z" fill="#ffce54"/><path d="M47 33.5l16 24H30.99l5.51-8.26z" fill="#656d78"/><path d="M32 42.5l4.5 6.74-5.51 8.26H22z" fill="#545c66"/><path d="M63 10.5H1v-2c0-1.11.89-2 2-2h58c1.11 0 2 .89 2 2z" fill="#ccd1d9"/><path d="M7 20.5a2 2 0 11.001 4.001A2 2 0 017 20.5z" fill="#656d78"/><path d="M.998 9.499a1 1 0 01-1-1c0-1.654 1.346-3 3-3a1 1 0 110 2c-.552 0-1 .449-1 1a1 1 0 01-1 1zM62.998 9.499a1 1 0 01-1-1c0-.551-.448-1-1-1a1 1 0 110-2c1.654 0 3 1.346 3 3a1 1 0 01-1 1z"/><path d="M60.998 7.499h-58a1 1 0 110-2h58a1 1 0 110 2zM4.028 9.499c-.553 0-1.005-.448-1.005-1s.442-1 .994-1h.011a1 1 0 010 2zM7.028 9.499c-.553 0-1.005-.448-1.005-1s.442-1 .994-1h.011a1 1 0 010 2zM10.03 9.499c-.553 0-1.005-.448-1.005-1s.442-1 .994-1h.011a1 1 0 010 2zM.998 58.5a1 1 0 01-1-1V8.499a1 1 0 112 0V57.5a1 1 0 01-1 1zM62.998 58.5a1 1 0 01-1-1V8.499a1 1 0 112 0V57.5a1 1 0 01-1 1z"/><path d="M62.998 11.499h-62a1 1 0 110-2h62a1 1 0 110 2zM62.998 58.5h-62a1 1 0 110-2h62a1 1 0 110 2z"/><path d="M16.994 58.5a1 1 0 01-1-1V10.499a1 1 0 112 0V57.5a1 1 0 01-1 1zM11.996 33.502H4.998a1 1 0 110-2h6.998a1 1 0 110 2zM7.992 36.502H4.998a1 1 0 110-2h2.994a1 1 0 110 2zM12.996 39.504H4.998a1 1 0 110-2h7.998a1 1 0 110 2zM10.994 42.506H4.998a1 1 0 110-2h5.996a1 1 0 110 2zM11.996 45.506H4.998a1 1 0 110-2h6.998a1 1 0 110 2zM7.992 48.506H4.998a1 1 0 110-2h2.994a1 1 0 110 2zM6.998 25.502c-1.654 0-3-1.346-3-3s1.346-3 3-3 3 1.346 3 3-1.346 3-3 3zm0-3.999a1 1 0 100 2 1 1 0 000-2zM63.003 58.502a.998.998 0 01-.833-.445L46.164 34.053a1 1 0 111.664-1.11l16.006 24.004a1 1 0 01-.831 1.555z"/><path d="M30.991 58.502a1 1 0 01-.831-1.555l16.006-24.004a1 1 0 111.664 1.11L31.824 58.057a.998.998 0 01-.833.445z"/><path d="M36.499 50.246a.998.998 0 01-.833-.445l-4.5-6.748a1 1 0 111.664-1.11l4.5 6.748a1 1 0 01-.831 1.555z"/><path d="M21.993 58.502a1.002 1.002 0 01-.831-1.555l10.006-15.004a1.001 1.001 0 011.664 1.11L22.826 58.057a.998.998 0 01-.833.445zM29.014 26.496c-2.206 0-4-1.794-4-4s1.794-4 4-4 4 1.794 4 4-1.794 4-4 4zm0-6c-1.103 0-2 .897-2 2s.897 2 2 2 2-.897 2-2-.898-2-2-2zM28.998 17.501a1 1 0 01-1-1v-2a1 1 0 112 0v2a1 1 0 01-1 1zM28.998 31.5a1 1 0 01-1-1v-2a1 1 0 112 0v2a1 1 0 01-1 1zM24.756 19.258a.997.997 0 01-.707-.293l-1.414-1.414a.999.999 0 111.414-1.414l1.414 1.414a.999.999 0 01-.707 1.707zM34.654 29.158a.997.997 0 01-.707-.293l-1.414-1.415a.999.999 0 111.414-1.414l1.414 1.415a.999.999 0 01-.707 1.707zM22.998 23.5h-2a1 1 0 110-2h2a1 1 0 110 2zM36.998 23.501l-2.001-.001a1 1 0 01.001-2h.001l2 .001a1 1 0 01-.001 2zM23.342 29.157a.999.999 0 01-.707-1.707l1.414-1.414a.999.999 0 111.414 1.414l-1.414 1.414a.993.993 0 01-.707.293zM33.24 19.258a1 1 0 01-.706-1.707l1.416-1.414a.999.999 0 111.412 1.415l-1.416 1.414a.996.996 0 01-.706.292z"/></svg>